:FULLY-SPECIFIED
:FORCE-ALL-JOINTS-BE-3DOF
:DEGREES
917
root 2.61032 16.0378 32.4309 2.83991 9.36191 3.6558
lfemur -7.71031 4.55997 -1.69517
ltibia 21.24 -0 0
lfoot -9.76839 -31.7948 -0.685639
ltoes 12.3268 -0 0
rfemur -22.4112 -5.49534 -8.24808
rtibia 51.3142 -0 0
rfoot 1.59471 -12.6189 -0.117619
rtoes -18.7541 0 0
lowerback -0.978785 -0.944715 -2.86684
upperback -0.803578 -1.19742 -5.63097
thorax -0.304778 -0.626292 -4.19621
lowerneck -7.02815 -3.65945 -0.448637
upperneck 4.03305 -5.17984 5.60138
head 2.70548 -2.40049 1.64695
lclavicle -1.98031e-15 7.23138e-15 1.694e-32
lhumerus -52.9089 -38.0489 107.618
lradius 58.721 -0 0
lwrist 16.5391 0 0
lhand 39.4835 24.0703 0.291055
lfingers 7.12502 -0 0
lthumb 61.7634 34.2982 -0.0590693
rclavicle -1.98031e-15 7.23138e-15 1.694e-32
rhumerus -53.6572 36.2915 -81.6356
rradius 114.621 -0 0
rwrist -6.93251 0 0
rhand 19.4784 -8.74931 -0.106254
rfingers 7.12502 -0 0
rthumb 44.0246 -32.4282 -0.0378755
918
root 2.51443 16.0059 32.492 3.16409 8.25014 3.89178
lfemur -6.29756 2.41027 -0.676942
ltibia 18.4727 -0 0
lfoot -9.24256 -34.7247 -0.599542
ltoes 12.4882 -0 0
rfemur -22.1368 -4.89412 -8.80927
rtibia 49.0266 -0 0
rfoot 1.32944 -11.6235 -0.10298
rtoes -24.333 0 0
lowerback -1.43435 -0.850741 -2.82493
upperback -0.924593 -1.05607 -5.95061
thorax -0.178104 -0.553873 -4.56277
lowerneck -7.03153 -3.372 -0.311446
upperneck 4.0009 -4.80956 5.6544
head 2.67938 -2.21306 1.65903
lclavicle -1.95425e-15 5.77212e-15 1.48342e-32
lhumerus -53.0338 -38.1261 107.387
lradius 58.5354 -0 0
lwrist 16.8649 0 0
lhand 40.4198 24.7682 0.254817
lfingers 7.12502 -0 0
lthumb 62.5593 34.1316 -0.0517207
rclavicle -1.95425e-15 5.77212e-15 1.48342e-32
rhumerus -54.2058 38.4312 -80.2568
rradius 114.638 -0 0
rwrist -6.67506 0 0
rhand 20.1539 -9.10242 -0.0930367
rfingers 7.12502 -0 0
rthumb 44.6567 -32.5627 -0.0331646
919
root 2.42518 15.9762 32.5489 3.46095 7.21405 4.10518
lfemur -5.01826 0.387654 0.222098
ltibia 15.897 -0 0
lfoot -8.75767 -37.451 -0.495351
ltoes 12.6384 -0 0
rfemur -21.8869 -4.33213 -9.3286
rtibia 46.8973 -0 0
rfoot 1.08278 -10.6969 -0.0852138
rtoes -29.5259 0 0
lowerback -1.85832 -0.762974 -2.78658
upperback -1.03794 -0.925111 -6.2484
thorax -0.060616 -0.485738 -4.90381
lowerneck -7.03405 -3.10445 -0.183801
upperneck 3.9713 -4.46487 5.70354
head 2.65513 -2.0386 1.67019
lclavicle -1.93e-15 4.41383e-15 1.22777e-32
lhumerus -53.1499 -38.1983 107.173
lradius 58.3627 -0 0
lwrist 17.1681 0 0
lhand 41.291 25.4173 0.210841
lfingers 7.12502 -0 0
lthumb 63.3003 33.9765 -0.0427997
rclavicle -1.93e-15 4.41383e-15 1.22777e-32
rhumerus -54.671 40.4317 -78.959
rradius 114.655 -0 0
rwrist -6.43544 0 0
rhand 20.7827 -9.43099 -0.076991
rfingers 7.12502 -0 0
rthumb 45.2451 -32.6879 -0.0274466
920
root 2.34445 15.9493 32.6003 3.72551 6.27617 4.29312
lfemur -3.88834 -1.45833 0.996378
ltibia 13.5674 -0 0
lfoot -8.32384 -39.9159 -0.381354
ltoes 12.7743 -0 0
rfemur -21.6654 -3.82185 -9.79595
rtibia 44.9716 -0 0
rfoot 0.85998 -9.85908 -0.0657141
rtoes -34.2225 0 0
lowerback -2.24165 -0.683363 -2.75247
upperback -1.14103 -0.807176 -6.51793
thorax 0.0452892 -0.423516 -5.21213
lowerneck -7.03582 -2.86247 -0.0683965
upperneck 3.9448 -4.15311 5.74781
head 2.63322 -1.8808 1.68022
lclavicle -1.90806e-15 3.18537e-15 9.47031e-33
lhumerus -53.2547 -38.2639 106.978
lradius 58.2065 -0 0
lwrist 17.4423 0 0
lhand 42.0783 26.0036 0.162584
lfingers 7.12502 -0 0
lthumb 63.9702 33.8365 -0.0330084
rclavicle -1.90806e-15 3.18537e-15 9.47031e-33
rhumerus -55.0514 42.2477 -77.7694
rradius 114.67 -0 0
rwrist -6.21872 0 0
rhand 21.3512 -9.72792 -0.0593788
rfingers 7.12502 -0 0
rthumb 45.7772 -32.801 -0.0211687
921
root 2.27415 15.9259 32.6451 3.95302 5.45874 4.45298
lfemur -2.92363 -3.07795 1.64164
ltibia 11.5386 -0 0
lfoot -7.95033 -42.0616 -0.266962
ltoes 12.8926 -0 0
rfemur -21.4761 -3.37614 -10.201
rtibia 43.2945 -0 0
rfoot 0.666176 -9.12939 -0.0460771
rtoes -38.3125 0 0
lowerback -2.57547 -0.613844 -2.7232
upperback -1.23125 -0.704872 -6.75282
thorax 0.13724 -0.368867 -5.48052
lowerneck -7.03697 -2.65175 0.032074
upperneck 3.92192 -3.88161 5.78623
head 2.61417 -1.74339 1.6889
lclavicle -1.88896e-15 2.11556e-15 6.6424e-33
lhumerus -53.3457 -38.3212 106.809
lradius 58.0705 -0 0
lwrist 17.6811 0 0
lhand 42.7634 26.5136 0.114002
lfingers 7.12502 -0 0
lthumb 64.5536 33.7146 -0.0231485
rclavicle -1.88896e-15 2.11556e-15 6.6424e-33
rhumerus -55.3493 43.8337 -76.7179
rradius 114.682 -0 0
rwrist -6.03 0 0
rhand 21.8461 -9.98635 -0.0416426
rfingers 7.12502 -0 0
rthumb 46.2406 -32.8995 -0.0148463
922
root 2.21618 15.9066 32.6821 4.13873 4.78403 4.58223
lfemur -2.14048 -4.42164 2.15406
ltibia 9.86553 -0 0
lfoot -7.6457 -43.8306 -0.162153
ltoes 12.9902 -0 0
rfemur -21.3224 -3.00755 -10.5338
rtibia 41.9113 -0 0
rfoot 0.506589 -8.52783 -0.0280317
rtoes -41.6855 0 0
lowerback -2.85074 -0.556382 -2.69936
upperback -1.30597 -0.620779 -6.94664
thorax 0.212871 -0.323478 -5.70178
lowerneck -7.03763 -2.47797 0.114915
upperneck 3.9032 -3.65768 5.81782
head 2.59847 -1.63006 1.69603
lclavicle -1.8732e-15 1.23328e-15 4.04178e-33
lhumerus -53.4207 -38.3686 106.669
lradius 57.9583 -0 0
lwrist 17.878 0 0
lhand 43.3282 26.9338 0.0693434
lfingers 7.12502 -0 0
lthumb 65.0347 33.6142 -0.0140838
rclavicle -1.8732e-15 1.23328e-15 4.04178e-33
rhumerus -55.57 45.1446 -75.8378
rradius 114.693 -0 0
rwrist -5.87436 0 0
rhand 22.2543 -10.1994 -0.0253361
rfingers 7.12502 -0 0
rthumb 46.6227 -32.9806 -0.009033
923
root 2.17241 15.892 32.7099 4.27774 4.27464 4.67823
lfemur -1.55633 -5.44038 2.52927
ltibia 8.60266 -0 0
lfoot -7.41798 -45.1655 -0.0768431
ltoes 13.0639 -0 0
rfemur -21.2078 -2.72877 -10.7843
rtibia 40.8675 -0 0
rfoot 0.386264 -8.07381 -0.0133021
rtoes -44.2314 0 0
lowerback -3.05849 -0.512936 -2.68155
upperback -1.36255 -0.557482 -7.093
thorax 0.269846 -0.289023 -5.86876
lowerneck -7.03797 -2.34681 0.177429
upperneck 3.88915 -3.48868 5.84161
head 2.58664 -1.54452 1.70139
lclavicle -1.86131e-15 5.67356e-16 1.91825e-33
lhumerus -53.4773 -38.4045 106.564
lradius 57.8736 -0 0
lwrist 18.0267 0 0
lhand 43.7542 27.2506 0.0329048
lfingers 7.12502 -0 0
lthumb 65.3978 33.5385 -0.00668365
rclavicle -1.86131e-15 5.67356e-16 1.91825e-33
rhumerus -55.7209 46.1356 -75.1645
rradius 114.701 -0 0
rwrist -5.7569 0 0
rhand 22.5623 -10.36 -0.0120237
rfingers 7.12502 -0 0
rthumb 46.9112 -33.0418 -0.00428688
